# xmcd CD database file
#
# Track frame offsets:
#	150
#	19820
#	33750
#	53325
#	66337
#	77457
#	93740
#	106030
#	121470
#	136827
#	143845
#
# Disc length: 2247 seconds
#
# Revision: 1
# Processed by: cddbd v1.5.1PL0 Copyright (c) Steve Scherf et al.
# Submitted via: CDex 1.51
#
DISCID=8508c50b
DTITLE=海藍 - トリコロ
DYEAR=2004
DGENRE=
TTITLE0=みやざきみえこ - あじさい
TTITLE1=ドラマパート - メリーポピンズ
TTITLE2=みやざきみえこ - ふたつのこもりうた
TTITLE3=ドラマパート - 羅生門
TTITLE4=ドラマパート - ミネラル
TTITLE5=竹中あこ・竹中三佳 - Ripples
TTITLE6=ドラマパート - 違いのわかる人間
TTITLE7=ドラマパート - 水鏡
TTITLE8=竹中あこ・竹中三佳 - Between Greens
TTITLE9=ドラマパート - turn
TTITLE10=みやざきみえこ - Blue Swing
EXTD=YEAR: 2004
EXTT0=
EXTT1=
EXTT2=
EXTT3=
EXTT4=
EXTT5=
EXTT6=
EXTT7=
EXTT8=
EXTT9=
EXTT10=
PLAYORDER=
